<svg xmlns="http://www.w3.org/2000/svg" viewBox="0 0 50.52 10.21"><defs><style>.cls-1{fill:#083042;}.cls-2{fill:#3ddc84;}</style></defs><title>Asset 1</title><g id="Layer_2" data-name="Layer 2"><g id="Layer_1-2" data-name="Layer 1"><path class="cls-1" d="M6.7,2.09l-1.64.38a1.28,1.28,0,0,0-1.37-1,1.25,1.25,0,0,0-.8.24.71.71,0,0,0-.29.58.6.6,0,0,0,.24.51,2.91,2.91,0,0,0,.92.35,8.35,8.35,0,0,1,1.54.51,2.08,2.08,0,0,1,.86.77,2.21,2.21,0,0,1,.3,1.19,2.45,2.45,0,0,1-.83,1.89,3.4,3.4,0,0,1-2.37.75,3.76,3.76,0,0,1-2.18-.6A2.69,2.69,0,0,1,0,5.84l1.71-.23A1.46,1.46,0,0,0,3.33,6.8a1.47,1.47,0,0,0,1-.27.8.8,0,0,0,.33-.66.64.64,0,0,0-.25-.56A4.79,4.79,0,0,0,3.2,4.89a6.31,6.31,0,0,1-1.32-.48,2.15,2.15,0,0,1-.78-.75,2.12,2.12,0,0,1-.29-1.1A2.48,2.48,0,0,1,1.58.77,2.87,2.87,0,0,1,3.7,0,2.86,2.86,0,0,1,6.7,2.09Z"/><path class="cls-1" d="M8.52,10.21H6.8l1.34-8H9.71L9.53,3.24a1.9,1.9,0,0,1,1.65-1.15,1.59,1.59,0,0,1,1.36.67A2.93,2.93,0,0,1,13,4.54a4.77,4.77,0,0,1-.71,2.61,2.12,2.12,0,0,1-1.81,1.1A1.66,1.66,0,0,1,9.57,8,1.35,1.35,0,0,1,9,7.25Zm1.53-3.14c.43,0,.74-.32.94-1a6.58,6.58,0,0,0,.29-1.85,1.2,1.2,0,0,0-.19-.68.64.64,0,0,0-.57-.28.89.89,0,0,0-.67.32,2.27,2.27,0,0,0-.47,1.2A8.92,8.92,0,0,0,9.23,6a1.18,1.18,0,0,0,.24.8A.77.77,0,0,0,10.05,7.07Z"/><path class="cls-1" d="M17.18,8.13c0-.18,0-.3,0-.37a3.65,3.65,0,0,1,0-.38,1.58,1.58,0,0,0,0-.28,2,2,0,0,1-1.91,1.17A1.8,1.8,0,0,1,14,7.81a1.52,1.52,0,0,1-.5-1.16,1.82,1.82,0,0,1,.87-1.56,6.65,6.65,0,0,1,3.17-.69,1.5,1.5,0,0,0,.1-.53.67.67,0,0,0-.21-.52.8.8,0,0,0-.57-.19,1.17,1.17,0,0,0-1.19.9l-1.57-.18A2.72,2.72,0,0,1,17,2.06a2.73,2.73,0,0,1,1.74.48,1.5,1.5,0,0,1,.59,1.25,10.51,10.51,0,0,1-.16,1.28L18.93,6.6a7.74,7.74,0,0,0-.12,1.13,2.8,2.8,0,0,0,0,.4Zm.26-2.89c-1.4,0-2.11.45-2.11,1.21a.77.77,0,0,0,.19.52.62.62,0,0,0,.49.21,1.12,1.12,0,0,0,.9-.49A3,3,0,0,0,17.44,5.24Z"/><path class="cls-1" d="M25.61,6a2.79,2.79,0,0,1-2.75,2.23,2.43,2.43,0,0,1-1.92-.78,2.87,2.87,0,0,1-.67-2,3.73,3.73,0,0,1,.84-2.39,2.73,2.73,0,0,1,2.25-1,2.33,2.33,0,0,1,1.87.69,2.24,2.24,0,0,1,.6,1.49v.13l-1.55.09A1.13,1.13,0,0,0,24,3.61a.85.85,0,0,0-.61-.25,1,1,0,0,0-.93.67,4,4,0,0,0-.34,1.75c0,.73.3,1.1.91,1.1s.91-.35,1.12-1Z"/><path class="cls-1" d="M31.92,5.44H28.07a3.15,3.15,0,0,0,0,.44,1.18,1.18,0,0,0,.29.87A1,1,0,0,0,29,7a1.23,1.23,0,0,0,1.19-1l1.46.25a2.78,2.78,0,0,1-2.75,1.93A2.52,2.52,0,0,1,27,7.51a2.72,2.72,0,0,1-.73-2,3.73,3.73,0,0,1,.86-2.43A2.8,2.8,0,0,1,29.45,2a2.33,2.33,0,0,1,1.86.77A2.87,2.87,0,0,1,32,4.73,5.39,5.39,0,0,1,31.92,5.44Zm-3.73-1h2.15a2.38,2.38,0,0,0,0-.36.91.91,0,0,0-.91-1C28.8,3.13,28.38,3.58,28.19,4.46Z"/><path class="cls-2" d="M36.86.1V4.85a2.13,2.13,0,0,1-.48,1.52,2.19,2.19,0,0,1-1.6.49,5.82,5.82,0,0,1-1.06-.1V5.47a5.13,5.13,0,0,0,.8.08A.87.87,0,0,0,35,5.44a.6.6,0,0,0,.24-.26,1.1,1.1,0,0,0,.08-.52V.1Z"/><path class="cls-2" d="M42.36,6.76H41A3.81,3.81,0,0,1,40.88,6a2.06,2.06,0,0,1-.73.7,1.91,1.91,0,0,1-.84.17,1.63,1.63,0,0,1-1.12-.37,1.3,1.3,0,0,1-.43-1A1.63,1.63,0,0,1,38,4.62a1.65,1.65,0,0,1,.8-.61,7.53,7.53,0,0,1,2-.33V3.4a.64.64,0,0,0-.72-.72.76.76,0,0,0-.85.72l-1.34-.13a1.51,1.51,0,0,1,.8-1.19,3.08,3.08,0,0,1,1.5-.35,4.19,4.19,0,0,1,.95.11,1.61,1.61,0,0,1,.69.36,1.18,1.18,0,0,1,.34.49,3.19,3.19,0,0,1,.09.91V5.84A3.37,3.37,0,0,0,42.36,6.76ZM40.82,4.4c-1,.1-1.52.41-1.52.92a.67.67,0,0,0,.16.45.58.58,0,0,0,.46.19.8.8,0,0,0,.64-.32,1.25,1.25,0,0,0,.26-.79Z"/><path class="cls-2" d="M50.52,6.76H49.07V4a4,4,0,0,0,0-.75A.48.48,0,0,0,48.85,3a.62.62,0,0,0-.39-.11.88.88,0,0,0-.49.17c-.17.11-.25.44-.25,1V6.76H46.26V4a3.08,3.08,0,0,0,0-.76A.52.52,0,0,0,46,3a.75.75,0,0,0-.94.13,1.59,1.59,0,0,0-.18.91V6.76H43.48V1.83h1.36v.75a1.36,1.36,0,0,1,1.39-.85,1.42,1.42,0,0,1,1.37.85A1.45,1.45,0,0,1,49,1.73a1.63,1.63,0,0,1,.84.2,1.14,1.14,0,0,1,.5.52,2.85,2.85,0,0,1,.15,1.11Z"/></g></g></svg>