<svg width="133" height="133" viewBox="0 0 133 133" fill="none" xmlns="http://www.w3.org/2000/svg">
<g filter="url(#filter0_d_1_520)">
<circle cx="66.5" cy="52.5" r="22.5" transform="rotate(-180 66.5 52.5)" fill="#57007B"/>
<circle cx="66.5" cy="52.5" r="21.5" transform="rotate(-180 66.5 52.5)" stroke="#57007B" stroke-width="2"/>
</g>
<path d="M73.0625 53.4375L61.9438 53.4375L65.3469 57.525C65.506 57.7165 65.5826 57.9633 65.5597 58.2112C65.5369 58.4591 65.4165 58.6878 65.225 58.8469C65.0335 59.0061 64.7867 59.0826 64.5388 59.0598C64.2909 59.0369 64.0623 58.9165 63.9031 58.725L59.2156 53.1C59.1841 53.0553 59.1559 53.0083 59.1313 52.9594C59.1313 52.9125 59.1313 52.8844 59.0656 52.8375C59.0231 52.7301 59.0009 52.6156 59 52.5C59.0009 52.3845 59.0231 52.27 59.0656 52.1625C59.0656 52.1157 59.0656 52.0875 59.1313 52.0407C59.1559 51.9918 59.1841 51.9448 59.2156 51.9L63.9031 46.275C63.9913 46.1692 64.1017 46.0841 64.2264 46.0258C64.3512 45.9674 64.4873 45.9373 64.625 45.9375C64.8441 45.9371 65.0563 46.0134 65.225 46.1532C65.3199 46.2319 65.3984 46.3285 65.4559 46.4376C65.5134 46.5467 65.5489 46.666 65.5602 46.7888C65.5715 46.9116 65.5585 47.0354 65.5219 47.1532C65.4853 47.2709 65.4258 47.3803 65.3469 47.475L61.9438 51.5625L73.0625 51.5625C73.3111 51.5625 73.5496 51.6613 73.7254 51.8371C73.9012 52.013 74 52.2514 74 52.5C74 52.7487 73.9012 52.9871 73.7254 53.163C73.5496 53.3388 73.3111 53.4375 73.0625 53.4375Z" fill="white"/>
<defs>
<filter id="filter0_d_1_520" x="0" y="0" width="133" height="133" filterUnits="userSpaceOnUse" color-interpolation-filters="sRGB">
<feFlood flood-opacity="0" result="BackgroundImageFix"/>
<feColorMatrix in="SourceAlpha" type="matrix" values="0 0 0 0 0 0 0 0 0 0 0 0 0 0 0 0 0 0 127 0" result="hardAlpha"/>
<feOffset dy="14"/>
<feGaussianBlur stdDeviation="22"/>
<feColorMatrix type="matrix" values="0 0 0 0 0.0561111 0 0 0 0 0.0777333 0 0 0 0 0.133333 0 0 0 0.08 0"/>
<feBlend mode="normal" in2="BackgroundImageFix" result="effect1_dropShadow_1_520"/>
<feBlend mode="normal" in="SourceGraphic" in2="effect1_dropShadow_1_520" result="shape"/>
</filter>
</defs>
</svg>
